<?xml version="1.0" encoding="UTF-8"?><svg id="Layer_2" xmlns="http://www.w3.org/2000/svg" viewBox="0 0 466.06 89.04"><defs><style>.cls-1{stroke-width:0px;}</style></defs><g id="Layer_1-2"><path class="cls-1" d="m.06,20.24h13.6v51.3H.06V20.24Z"/><path class="cls-1" d="m53.16,65.84h-.2c-2.6,3.9-6.3,6.9-15.1,6.9-10.5,0-17.9-5.5-17.9-15.7,0-11.3,9.2-14.9,20.6-16.5,8.5-1.2,12.4-1.9,12.4-5.8,0-3.7-2.9-6.1-8.6-6.1-6.4,0-9.5,2.3-9.9,7.2h-12.1c.4-9,7.1-16.9,22.1-16.9s21.6,6.9,21.6,18.9v26.1c0,3.9.6,6.2,1.8,7.1v.5h-13.1c-.8-1-1.3-3.4-1.6-5.7Zm.1-12.4v-7.7c-2.4,1.4-6.1,2.2-9.5,3-7.1,1.6-10.6,3.2-10.6,8s3.2,6.5,8,6.5c7.8,0,12.1-4.8,12.1-9.8Z"/><path class="cls-1" d="m87.96,27.24h.3c3.5-5.5,8.2-8.4,15.2-8.4,10.6,0,17.7,8,17.7,19.2v33.5h-13.6v-31.5c0-5.5-3.2-9.4-8.9-9.4-6,0-10.4,4.8-10.4,11.8v29.1h-13.6V20.24h13.3v7Z"/><path class="cls-1" d="m142.36,20.24h13.5l6.2,23.8c1.1,4.2,2.3,9.6,2.3,9.6h.2s1.1-5.5,2.2-9.7l6.4-23.7h11.6l6.7,23.7c1.1,4.3,2.4,9.7,2.4,9.7h.2s1.2-5.4,2.3-9.6l6.5-23.8h13.2l-15.3,51.3h-12.4l-6.8-25.2c-1.1-4.1-2.3-8.9-2.3-8.9h-.2s-1.3,4.8-2.4,8.9l-7,25.2h-12.3l-15-51.3Z"/><path class="cls-1" d="m250.06,65.84h-.2c-2.6,3.9-6.3,6.9-15.1,6.9-10.5,0-17.9-5.5-17.9-15.7,0-11.3,9.2-14.9,20.6-16.5,8.5-1.2,12.4-1.9,12.4-5.8,0-3.7-2.9-6.1-8.6-6.1-6.4,0-9.5,2.3-9.9,7.2h-12.1c.4-9,7.1-16.9,22.1-16.9s21.6,6.9,21.6,18.9v26.1c0,3.9.6,6.2,1.8,7.1v.5h-13.1c-.8-1-1.3-3.4-1.6-5.7Zm.1-12.4v-7.7c-2.4,1.4-6.1,2.2-9.5,3-7.1,1.6-10.6,3.2-10.6,8s3.2,6.5,8,6.5c7.8,0,12.1-4.8,12.1-9.8Z"/><path class="cls-1" d="m270.15,73.04h13.5c1.1,3.2,4,5.7,10.3,5.7,7.7,0,11.4-3.7,11.4-10.7v-5.6h-.3c-3,3.4-6.9,6-13.4,6-11.4,0-22.6-9-22.6-24.5s9.2-25.1,22.2-25.1c6.4,0,11.1,2.5,14.2,6.8h.2v-5.4h13.1v47.4c0,7.2-2.3,12.1-6.1,15.6-4.3,4-10.9,5.8-18.5,5.8-14,0-22.6-6-24-16Zm35.9-29.4c0-7.5-4-13.9-12.2-13.9-6.9,0-11.5,5.4-11.5,14s4.6,13.8,11.6,13.8c8.6,0,12.1-6.3,12.1-13.9Z"/><path class="cls-1" d="m340.86,27.24h.3c3.5-5.5,8.2-8.4,15.2-8.4,10.6,0,17.7,8,17.7,19.2v33.5h-13.6v-31.5c0-5.5-3.2-9.4-8.9-9.4-6,0-10.4,4.8-10.4,11.8v29.1h-13.6V20.24h13.3v7Z"/><path class="cls-1" d="m379.95,45.84c0-15.2,10.3-27,25.3-27,16.5,0,25.3,12.6,25.3,30.9h-37.2c1,7.9,5.4,12.8,13.1,12.8,5.3,0,8.4-2.4,9.9-6.3h13.4c-1.9,9.1-10,16.8-23.2,16.8-17,0-26.6-11.9-26.6-27.2Zm13.6-5.5h22.8c-.4-6.5-4.7-11-10.9-11-7.2,0-10.7,4.3-11.9,11Z"/><path class="cls-1" d="m449.95,28.44h.3c3.1-5.8,6.6-8.8,12.6-8.8,1.5,0,2.4.1,3.2.4v11.9h-.3c-8.9-.9-15.3,3.8-15.3,14.6v25h-13.6V20.24h13.1v8.2Z"/><path class="cls-1" d="m7.25,0h.1c4,0,7.25,3.25,7.25,7.25h0c0,4-3.25,7.25-7.25,7.25h-.1C3.25,14.5,0,11.25,0,7.25h0C0,3.25,3.25,0,7.25,0Z"/></g></svg>