<?xml version="1.0" standalone="no"?>
<!DOCTYPE svg PUBLIC "-//W3C//DTD SVG 20010904//EN"
 "http://www.w3.org/TR/2001/REC-SVG-20010904/DTD/svg10.dtd">
<svg version="1.0" xmlns="http://www.w3.org/2000/svg"
 width="728.000000pt" height="728.000000pt" viewBox="0 0 728.000000 728.000000"
 preserveAspectRatio="xMidYMid meet">
<metadata>
Created by potrace 1.14, written by Peter Selinger 2001-2017
</metadata>
<g transform="translate(0.000000,728.000000) scale(0.100000,-0.100000)"
fill="#000000" stroke="none">
<path d="M432 6480 c-270 -76 -445 -318 -429 -591 6 -92 41 -212 77 -261 11
-15 20 -31 20 -35 0 -18 110 -124 169 -162 144 -93 292 -113 488 -67 36 8 147
63 173 86 91 77 156 156 185 225 65 155 68 351 6 470 -8 17 -15 33 -16 36 0 4
-14 28 -32 55 -81 124 -204 210 -358 251 -54 15 -222 11 -283 -7z"/>
<path d="M60 4882 c0 -5 -12 -7 -28 -4 l-27 4 0 -2054 0 -2053 544 0 545 0 0
2043 c1 1124 -1 2047 -4 2052 -3 4 -24 7 -47 8 -24 0 -46 1 -50 2 -5 1 -12 2
-16 1 -30 -5 -124 -4 -133 2 -6 3 -14 3 -18 0 -8 -8 -102 -7 -116 2 -6 3 -10
3 -10 -2 0 -9 -162 -9 -177 0 -6 4 -13 3 -17 0 -8 -8 -102 -7 -116 2 -6 3 -10
3 -10 -2 0 -9 -162 -9 -177 0 -6 4 -13 3 -17 0 -8 -8 -102 -7 -116 2 -6 3 -10
2 -10 -3z"/>
<path d="M1446 4882 c-3 -5 -19 -7 -35 -4 l-30 4 15 -53 c8 -30 21 -76 29
-104 7 -27 18 -61 23 -75 5 -14 10 -28 11 -32 0 -5 1 -9 2 -10 0 -2 2 -10 4
-18 1 -8 10 -37 19 -65 21 -68 234 -796 252 -865 8 -30 21 -72 29 -92 8 -21
13 -38 10 -38 -2 0 5 -26 16 -57 11 -32 20 -59 20 -60 0 -2 1 -8 4 -15 2 -7
17 -60 34 -118 16 -58 51 -177 77 -265 64 -220 73 -252 90 -315 8 -30 17 -62
21 -70 3 -8 7 -19 8 -25 2 -5 13 -44 25 -85 12 -41 23 -79 25 -85 1 -5 10 -37
20 -70 10 -33 20 -67 22 -75 7 -30 11 -45 13 -45 1 0 3 -7 5 -15 2 -8 13 -46
25 -85 12 -38 23 -77 25 -86 2 -9 18 -63 35 -120 17 -57 33 -111 35 -119 6
-22 102 -355 125 -430 11 -36 22 -74 25 -85 4 -18 35 -125 100 -340 13 -44 31
-106 40 -138 l16 -57 494 0 493 0 5 22 c2 13 39 147 82 298 42 151 81 289 86
305 4 17 14 55 23 85 19 71 65 241 71 260 2 8 13 47 24 85 11 39 33 120 50
180 34 119 39 136 45 163 3 9 28 100 56 202 108 385 130 466 134 485 3 11 12
47 21 80 10 33 18 65 20 70 1 6 5 17 8 25 4 12 18 68 33 133 1 4 2 8 4 10 1 1
3 9 5 17 11 56 80 297 86 304 8 9 24 -23 34 -67 12 -59 45 -190 63 -257 12
-41 23 -86 26 -100 3 -14 20 -77 37 -140 17 -63 33 -126 36 -140 3 -14 7 -32
10 -40 3 -8 8 -22 9 -30 2 -8 18 -64 34 -125 17 -60 34 -123 37 -140 2 -16 10
-36 15 -42 6 -7 8 -13 5 -13 -3 0 1 -24 9 -52 8 -29 17 -60 19 -68 2 -8 8 -30
14 -48 5 -18 11 -36 12 -40 1 -4 3 -11 5 -17 1 -5 9 -37 18 -70 27 -107 86
-328 106 -395 10 -36 21 -76 24 -90 3 -14 23 -92 46 -175 23 -82 48 -175 56
-205 8 -30 28 -107 45 -170 17 -63 39 -144 49 -180 10 -36 21 -77 24 -93 l6
-27 499 0 499 0 8 33 c4 17 9 37 10 42 2 6 35 116 74 245 39 129 73 242 75
250 2 8 4 15 5 15 1 0 3 7 5 15 3 16 62 216 120 405 19 61 43 144 55 185 12
41 28 95 37 120 8 25 16 50 17 55 7 27 30 109 57 196 16 52 31 105 33 116 3
11 11 41 20 66 8 26 32 102 52 169 20 68 50 168 66 223 28 93 55 187 62 210 1
6 13 43 25 84 13 41 24 81 26 90 3 9 42 142 89 296 46 154 119 397 161 540 42
143 97 325 122 405 24 80 46 152 48 161 3 14 14 52 51 170 4 15 -7 17 -101 15
-58 0 -105 3 -105 7 0 5 -5 5 -11 1 -13 -7 -129 -11 -129 -4 0 3 -24 4 -52 2
-129 -6 -330 -6 -335 1 -2 4 -12 4 -21 -1 -9 -4 -28 -7 -42 -6 -34 3 -123 4
-197 2 l-61 -1 -13 -46 c-7 -25 -13 -51 -15 -58 -1 -6 -7 -27 -13 -45 -6 -18
-13 -44 -15 -58 -6 -26 -29 -112 -66 -240 -11 -41 -23 -84 -25 -95 -3 -11 -7
-32 -11 -47 -3 -15 -6 -31 -6 -35 0 -5 -3 -12 -8 -18 -6 -8 -21 -60 -36 -127
-1 -5 -2 -9 -3 -10 -2 -3 -48 -170 -56 -201 -2 -10 -14 -52 -25 -95 -12 -42
-30 -108 -40 -147 -11 -38 -53 -194 -95 -345 -42 -151 -78 -282 -80 -290 -2
-8 -17 -69 -34 -135 -17 -66 -34 -133 -37 -150 -3 -16 -11 -48 -18 -70 -8 -22
-16 -58 -19 -80 -3 -22 -8 -47 -11 -55 -5 -13 -43 -169 -62 -260 -3 -14 -7
-32 -9 -40 -2 -8 -4 -19 -4 -23 -3 -32 -33 39 -47 115 -2 9 -20 84 -40 165
-20 81 -37 155 -39 163 -2 8 -13 53 -25 100 -12 47 -24 92 -25 100 -2 8 -4 16
-5 18 -3 2 -4 6 -13 52 -4 19 -7 37 -6 40 0 3 -6 23 -15 45 -9 22 -17 49 -19
60 -1 11 -5 25 -9 30 -3 6 -9 26 -13 45 -4 19 -39 143 -77 275 -38 132 -71
250 -74 262 -2 12 -9 34 -14 48 -5 14 -7 25 -5 25 2 0 0 12 -6 28 -6 15 -15
42 -20 60 -28 102 -27 98 -74 262 -20 69 -43 149 -51 178 -7 29 -30 108 -49
176 -20 67 -38 132 -40 142 -3 10 -14 51 -25 89 -12 39 -23 75 -24 80 -2 6 -6
17 -9 25 -3 8 -8 31 -11 51 l-6 36 -73 0 c-40 -1 -80 2 -90 6 -9 3 -18 3 -21
-2 -3 -4 -20 -6 -38 -5 -46 4 -113 4 -251 1 -64 -1 -117 2 -117 6 0 5 -5 5
-11 1 -13 -7 -129 -11 -129 -4 0 3 -24 4 -52 2 -29 -1 -74 -3 -101 -3 -48 -1
-55 -5 -62 -36 -4 -17 -30 -118 -40 -155 -3 -10 -7 -26 -9 -35 -3 -10 -14 -48
-25 -85 -11 -38 -17 -68 -15 -68 3 0 0 -9 -6 -20 -6 -11 -13 -33 -15 -48 -3
-15 -23 -92 -45 -172 -39 -139 -100 -364 -104 -385 -1 -5 -10 -37 -20 -70 -10
-33 -20 -69 -22 -80 -2 -11 -18 -69 -35 -130 -17 -60 -32 -118 -34 -128 -2
-10 -7 -27 -10 -37 -3 -10 -8 -27 -10 -37 -2 -10 -20 -76 -40 -148 -20 -71
-60 -227 -91 -345 -48 -191 -63 -253 -95 -405 -5 -22 -11 -51 -14 -65 -3 -14
-8 -36 -11 -50 -27 -130 -36 -166 -44 -174 -7 -7 -10 -6 -10 2 0 14 1 9 -11
57 -6 22 -12 49 -14 60 -7 34 -12 58 -25 105 -7 25 -14 54 -16 65 -2 11 -6 31
-10 45 -3 14 -10 43 -14 65 -9 42 -113 451 -150 590 -39 148 -81 310 -95 365
-7 30 -22 89 -33 130 -11 41 -37 138 -57 215 -20 77 -52 199 -71 270 -19 72
-36 139 -39 150 -8 38 -27 110 -32 125 -3 8 -7 22 -8 30 -3 16 -5 21 -29 112
-8 31 -18 67 -20 80 -19 87 -51 194 -60 200 -6 4 -45 6 -88 5 -43 -1 -78 2
-78 6 0 5 -4 6 -9 2 -14 -8 -166 -9 -179 -1 -7 4 -12 4 -12 -1 0 -4 -27 -8
-60 -8 -33 0 -60 4 -60 8 0 5 -4 6 -9 2 -14 -8 -166 -9 -179 -1 -7 4 -12 4
-12 -1 0 -4 -27 -8 -60 -8 -33 0 -60 4 -60 8 0 5 -4 6 -9 3 -14 -9 -166 -11
-179 -2 -6 3 -13 3 -16 -2z"/>
</g>
</svg>
