<?xml version="1.0" standalone="no"?>
<!DOCTYPE svg PUBLIC "-//W3C//DTD SVG 20010904//EN"
 "http://www.w3.org/TR/2001/REC-SVG-20010904/DTD/svg10.dtd">
<svg version="1.0" xmlns="http://www.w3.org/2000/svg"
 width="1128.000000pt" height="1128.000000pt" viewBox="0 0 1128.000000 1128.000000"
 preserveAspectRatio="xMidYMid meet">
<metadata>
Created by potrace 1.14, written by Peter Selinger 2001-2017
</metadata>
<g transform="translate(0.000000,1128.000000) scale(0.100000,-0.100000)"
fill="#000000" stroke="none">
<path d="M488 8534 c-2 -2 -21 -6 -41 -9 -139 -22 -310 -157 -380 -299 -51
-102 -67 -173 -63 -285 9 -275 206 -502 476 -548 44 -8 164 -8 210 0 126 21
259 104 364 227 19 22 85 160 91 190 45 219 -2 402 -139 543 -74 75 -92 89
-157 123 -75 40 -172 62 -271 62 -47 0 -88 -1 -90 -4z"/>
<path d="M8118 7035 c-2 -1 -34 -5 -72 -9 -38 -4 -71 -8 -75 -10 -3 -2 -28 -7
-55 -10 -74 -10 -252 -73 -343 -121 -145 -76 -322 -225 -410 -343 -16 -20 -30
-39 -34 -42 -3 -3 -21 -27 -39 -55 -39 -57 -55 -75 -67 -75 -5 0 -9 118 -8
263 0 144 -1 269 -3 278 -3 14 -60 15 -530 15 l-527 -1 -2 -2025 c-1 -1114 0
-2034 2 -2045 4 -20 12 -20 542 -20 l538 0 0 1213 c0 666 4 1212 8 1212 5 0 6
4 3 9 -5 7 0 42 20 154 3 15 14 54 25 85 11 31 21 62 23 67 6 25 50 111 58
116 5 3 9 9 8 13 -5 27 153 200 230 253 93 63 226 117 317 129 103 14 253 9
331 -10 12 -3 30 -8 40 -10 117 -27 271 -136 344 -243 50 -73 95 -183 113
-274 3 -13 8 -37 12 -54 3 -16 7 -619 8 -1340 2 -720 3 -1312 4 -1315 0 -3
244 -5 541 -5 l541 0 -4 1450 c-3 797 -7 1464 -10 1481 -3 17 -7 40 -10 50 -3
11 -9 39 -12 64 -4 24 -8 47 -10 51 -2 3 -6 19 -9 35 -12 64 -80 254 -116 319
-9 17 -30 55 -46 85 -16 30 -31 57 -35 60 -3 3 -27 36 -53 73 -69 96 -202 226
-304 294 -112 75 -122 81 -150 93 -12 5 -41 18 -65 29 -80 36 -222 79 -322 96
-81 14 -386 29 -397 20z"/>
<path d="M3339 7026 c-2 -2 -38 -7 -79 -10 -100 -7 -169 -19 -378 -62 -90 -18
-413 -148 -432 -173 -3 -3 -22 -15 -43 -26 -21 -11 -46 -27 -55 -35 -9 -8 -30
-24 -47 -34 -89 -57 -229 -204 -307 -322 -63 -95 -150 -285 -164 -359 -1 -5
-7 -29 -13 -53 -15 -52 -22 -101 -36 -224 -3 -34 16 -70 28 -51 6 10 180 9
196 -1 6 -4 11 -4 11 1 0 10 251 10 268 -1 6 -4 12 -4 12 1 0 4 100 8 222 8
l223 0 12 70 c15 81 40 163 57 185 7 8 18 27 25 42 55 110 239 220 421 252
146 26 402 27 520 2 14 -3 39 -8 55 -12 51 -10 158 -56 200 -85 128 -87 190
-214 186 -384 -3 -155 -109 -262 -320 -325 -80 -24 -290 -69 -346 -75 -22 -2
-51 -6 -65 -9 -14 -3 -45 -9 -70 -12 -25 -3 -54 -7 -65 -9 -35 -6 -109 -17
-130 -19 -25 -3 -138 -20 -145 -21 -3 -1 -27 -5 -55 -10 -27 -5 -52 -10 -55
-10 -20 -5 -120 -25 -140 -29 -14 -3 -43 -10 -65 -16 -22 -6 -47 -12 -55 -14
-47 -8 -283 -84 -345 -112 -47 -21 -44 -20 -72 -29 -13 -4 -23 -11 -23 -16 0
-5 -6 -9 -13 -9 -30 0 -194 -100 -277 -169 -59 -50 -170 -162 -170 -172 0 -3
-11 -19 -25 -35 -14 -16 -25 -35 -25 -41 0 -7 -4 -13 -9 -13 -8 0 -90 -168
-96 -198 -1 -9 -11 -44 -21 -77 -10 -33 -18 -64 -19 -70 -1 -5 -3 -12 -4 -15
-14 -31 -20 -377 -8 -445 4 -22 9 -56 12 -75 9 -71 46 -201 70 -247 8 -15 15
-33 15 -38 0 -15 88 -163 124 -209 56 -71 129 -146 186 -189 30 -23 59 -45 65
-50 37 -28 88 -57 100 -57 8 0 15 -4 15 -9 0 -9 204 -99 242 -106 11 -3 37
-10 57 -16 20 -7 45 -14 56 -15 11 -2 38 -8 60 -13 42 -10 91 -18 190 -31 63
-8 441 -5 510 4 39 5 95 14 145 23 25 4 140 35 195 52 60 18 187 81 254 126
105 71 217 184 312 317 10 13 19 21 22 18 3 -3 13 -46 21 -95 28 -169 53 -257
89 -320 l23 -40 519 0 c588 0 558 -5 492 77 -18 24 -42 63 -51 88 -18 46 -22
61 -32 119 -3 18 -8 43 -10 55 -14 68 -16 254 -19 1351 -1 666 -5 1224 -8
1240 -3 17 -8 48 -11 70 -3 22 -8 51 -11 65 -4 20 -25 118 -30 140 -7 30 -38
125 -52 156 -9 21 -17 41 -18 44 0 3 -15 33 -32 66 -196 389 -604 636 -1153
699 -25 3 -58 8 -75 11 -36 6 -531 15 -536 10z m906 -2493 c-1 -306 -4 -367
-19 -422 -61 -224 -206 -393 -434 -505 -74 -37 -177 -71 -243 -81 -24 -4 -46
-8 -50 -11 -6 -4 -185 -18 -224 -17 -40 0 -210 15 -216 18 -3 2 -21 7 -39 10
-18 3 -38 9 -44 13 -6 3 -17 7 -24 8 -57 9 -179 96 -223 160 -31 46 -67 133
-76 189 -8 43 -8 172 -1 225 17 121 90 232 204 311 57 39 241 123 294 134 8 2
55 15 104 29 48 14 98 28 110 30 11 2 68 16 126 30 58 14 116 28 130 30 14 3
27 6 30 7 3 1 10 3 15 4 6 2 12 4 15 5 7 2 29 7 69 15 19 3 37 8 41 10 3 2 17
6 31 9 29 6 162 47 244 76 33 11 85 34 115 50 30 16 58 29 61 29 3 1 5 -160 4
-356z"/>
<path d="M9 6925 c-1 0 -2 -919 -3 -2042 -1 -1386 2 -2044 9 -2046 5 -2 248
-3 540 -3 l530 1 2 2046 3 2045 -540 0 c-297 0 -541 0 -541 -1z"/>
<path d="M10554 3974 c-55 -14 -156 -59 -189 -84 -11 -8 -49 -44 -85 -80 -127
-126 -183 -300 -156 -485 9 -62 47 -175 58 -175 5 0 6 -4 3 -10 -3 -5 -1 -10
4 -10 6 0 11 -5 11 -11 0 -21 60 -92 136 -159 28 -25 129 -78 189 -99 97 -33
259 -31 358 5 23 8 51 18 62 21 11 4 24 10 30 15 5 5 31 22 56 38 40 26 95 80
147 145 24 28 79 158 90 210 18 84 8 230 -22 308 -40 106 -60 139 -136 216
-77 79 -158 125 -276 156 -70 18 -207 18 -280 -1z"/>
</g>
</svg>
